<?xml version="1.0" encoding="utf-8"?>
<!-- Generator: Adobe Illustrator 24.3.0, SVG Export Plug-In . SVG Version: 6.00 Build 0)  -->
<svg version="1.1" id="Capa_1" xmlns="http://www.w3.org/2000/svg" xmlns:xlink="http://www.w3.org/1999/xlink" x="0px" y="0px"
	 viewBox="0 0 141.73 141.73" style="enable-background:new 0 0 141.73 141.73;" xml:space="preserve">
<style type="text/css">
	.st0{clip-path:url(#SVGID_2_);}
	.st1{fill:#3D72B8;}
</style>
<g>
	<defs>
		<rect id="SVGID_1_" x="-15.7" y="-15.7" width="173.12" height="173.13"/>
	</defs>
	<clipPath id="SVGID_2_">
		<use xlink:href="#SVGID_1_"  style="overflow:visible;"/>
	</clipPath>
	<g class="st0">
		<path class="st1" d="M139.97,100.37l-7.86-55.26c-2.02-14.21-14.21-24.74-28.57-24.74H38.19c-14.35,0-26.55,10.53-28.57,24.74
			l-7.86,55.26c-1.59,11.11,7,20.99,18.18,20.99c4.91,0,9.52-1.95,12.98-5.41l16.3-16.23h43.28l16.23,16.23
			c3.46,3.46,8.15,5.41,12.98,5.41C132.97,121.36,141.56,111.48,139.97,100.37z M63.65,63.65H49.22v14.43h-7.21V63.65H27.58v-7.21
			h14.43V42.01h7.21v14.43h14.43V63.65z M92.51,56.44c-3.97,0-7.21-3.25-7.21-7.21s3.25-7.21,7.21-7.21c3.97,0,7.21,3.25,7.21,7.21
			S96.47,56.44,92.51,56.44z M106.93,78.08c-3.97,0-7.21-3.25-7.21-7.21s3.25-7.21,7.21-7.21c3.97,0,7.21,3.25,7.21,7.21
			S110.9,78.08,106.93,78.08z"/>
	</g>
</g>
</svg>
